<?xml version="1.0" encoding="UTF-8"?>
<svg xmlns="http://www.w3.org/2000/svg" viewBox="-26 -36 1212 932" width="1212" height="932"><style>
text{font-family:Helvetica, Arial, sans-serif;font-size:12px;fill:#111418;dominant-baseline:auto}
.d-mono{font-family:Menlo, Consolas, monospace;font-size:11px;fill:#2d343c}
.d-name{font-family:Helvetica, Arial, sans-serif;font-size:12.5px;font-weight:600;letter-spacing:.04em}
.d-italic{font-style:italic}
.d-comp{font-size:10.5px;font-style:italic;fill:#5b6470}
.d-frame{fill:none;stroke:#111418;stroke-width:1}
.d-frame-tab{fill:#ffffff;stroke:#111418;stroke-width:1}
.d-sym .d-shape{fill:#f4f8fd;stroke:#111418}
.d-sym .d-rule,.d-sym .d-stick{stroke:#111418}
.d-sym.c-b .d-shape{fill:#fdf8ee;stroke:#111418}
.d-sym.c-b .d-rule,.d-sym.c-b .d-stick{stroke:#111418}
.d-sym.c-c .d-shape{fill:#fbf3f6;stroke:#111418}
.d-sym.c-c .d-rule,.d-sym.c-c .d-stick{stroke:#111418}
.d-sym.c-n .d-shape{fill:#fffbe6;stroke:#5b6470}
.d-sym.c-n .d-rule,.d-sym.c-n .d-stick{stroke:#5b6470}
.d-shape{stroke-width:1.2}
.d-shape.dashed{stroke-dasharray:6 4}
.d-rule{stroke-width:.8;opacity:.55;fill:none}
.d-stick{fill:none;stroke-width:1.5}
.d-port{fill:#ffffff;stroke:#111418;stroke-width:1.2}
.d-port-dir{fill:#111418;stroke:none}
.d-line{fill:none;stroke:#2d343c;stroke-width:1.2}
.d-line.dashed{stroke-dasharray:6 4}
.d-head{fill:none;stroke:#2d343c;stroke-width:1.2}
.d-head.filled{fill:#2d343c}
.d-head.hollow{fill:#ffffff}
.d-hit{fill:none;stroke:transparent;stroke-width:12}
.d-label-bg{fill:#ffffff;opacity:.85}
</style><rect x="-26" y="-36" width="1212" height="932" fill="#fff"/><rect class="d-frame" x="-10" y="-20" width="1180" height="900"/><path class="d-frame-tab" d="M-10 -20h278.8v14l-10 10H-10z"/><text class="d-mono" x="0" y="-4">bdd [package] Toolkit [In the toolkit]</text><g class="d-symbols"><g class="d-sym " data-sym="sy_036" transform="translate(300 40)"><rect class="d-shape" width="220" height="50"/><text class="d-mono" x="110" y="19" text-anchor="middle">«block»</text><text class="d-name" x="110" y="36" text-anchor="middle">toolkit-portal</text></g><g class="d-sym " data-sym="sy_037" transform="translate(640 40)"><rect class="d-shape" width="180" height="50"/><text class="d-mono" x="90" y="19" text-anchor="middle">«block»</text><text class="d-name" x="90" y="36" text-anchor="middle">Claude</text></g><g class="d-sym " data-sym="sy_038" transform="translate(440 280)"><rect class="d-shape" width="240" height="50"/><text class="d-mono" x="120" y="19" text-anchor="middle">«block»</text><text class="d-name" x="120" y="36" text-anchor="middle">Flow</text></g><g class="d-sym " data-sym="sy_039" transform="translate(900 280)"><rect class="d-shape" width="220" height="50"/><text class="d-mono" x="110" y="19" text-anchor="middle">«block»</text><text class="d-name" x="110" y="36" text-anchor="middle">Project Planner</text></g><g class="d-sym " data-sym="sy_040" transform="translate(40 540)"><rect class="d-shape" width="170" height="50"/><text class="d-mono" x="85" y="19" text-anchor="middle">«block»</text><text class="d-name" x="85" y="36" text-anchor="middle">ui-kit</text></g><g class="d-sym " data-sym="sy_041" transform="translate(460 540)"><rect class="d-shape" width="180" height="50"/><text class="d-mono" x="90" y="19" text-anchor="middle">«block»</text><text class="d-name" x="90" y="36" text-anchor="middle">sync-kit</text></g><g class="d-sym " data-sym="sy_042" transform="translate(880 540)"><rect class="d-shape" width="180" height="50"/><text class="d-mono" x="90" y="19" text-anchor="middle">«block»</text><text class="d-name" x="90" y="36" text-anchor="middle">shell-kit</text></g><g class="d-sym " data-sym="sy_043" transform="translate(440 780)"><rect class="d-shape" width="240" height="50"/><text class="d-mono" x="120" y="19" text-anchor="middle">«block»</text><text class="d-name" x="120" y="36" text-anchor="middle">Sync server</text></g></g><g class="d-paths"><g class="d-path" data-path="pa_034"><path class="d-hit" d="M410 90L410 185L520 185L520 280"/><path class="d-line dashed" d="M410 90L410 185L520 185L520 280"/><path class="d-head" transform="translate(520 280) rotate(90)" d="M-11 -5L0 0L-11 5"/><rect class="d-label-bg" x="408.2" y="167" width="113.6" height="15"/><text class="d-mono" x="465" y="178" text-anchor="middle">toolkit-app.json</text></g><g class="d-path" data-path="pa_035"><path class="d-hit" d="M730 90L730 185L600 185L600 280"/><path class="d-line dashed" d="M730 90L730 185L600 185L600 280"/><path class="d-head" transform="translate(600 280) rotate(90)" d="M-11 -5L0 0L-11 5"/><rect class="d-label-bg" x="624.7" y="167" width="80.6" height="15"/><text class="d-mono" x="665" y="178" text-anchor="middle">/flow skill</text></g><g class="d-path" data-path="pa_036"><path class="d-hit" d="M680 305L790 305L900 305"/><path class="d-line dashed" d="M680 305L790 305L900 305"/><path class="d-head" transform="translate(900 305) rotate(0)" d="M-11 -5L0 0L-11 5"/><rect class="d-label-bg" x="707.9" y="287" width="54.2" height="15"/><text class="d-mono" x="735" y="298" text-anchor="middle">flow.op</text></g><g class="d-path" data-path="pa_037"><path class="d-hit" d="M440 305L325 305L325 565L210 565"/><path class="d-line dashed" d="M440 305L325 305L325 565L210 565"/><path class="d-head" transform="translate(210 565) rotate(180)" d="M-11 -5L0 0L-11 5"/><rect class="d-label-bg" x="331" y="428" width="113.6" height="15"/><text class="d-mono" x="387.8" y="439" text-anchor="middle">vendored ui-kit/</text></g><g class="d-path" data-path="pa_038"><path class="d-hit" d="M520 330L520 435L550 435L550 540"/><path class="d-line dashed" d="M520 330L520 435L550 435L550 540"/><path class="d-head" transform="translate(550 540) rotate(90)" d="M-11 -5L0 0L-11 5"/><rect class="d-label-bg" x="526" y="375.5" width="146.6" height="15"/><text class="d-mono" x="599.3" y="386.5" text-anchor="middle">vendored sync-kit/js/</text></g><g class="d-path" data-path="pa_039"><path class="d-hit" d="M600 330L600 435L970 435L970 540"/><path class="d-line dashed" d="M600 330L600 435L970 435L970 540"/><path class="d-head" transform="translate(970 540) rotate(90)" d="M-11 -5L0 0L-11 5"/><rect class="d-label-bg" x="708.4" y="417" width="153.2" height="15"/><text class="d-mono" x="785" y="428" text-anchor="middle">src/host.js; iOS shell</text></g><g class="d-path" data-path="pa_040"><path class="d-hit" d="M550 590L550 685L560 685L560 780"/><path class="d-line dashed" d="M550 590L550 685L560 685L560 780"/><path class="d-head" transform="translate(560 780) rotate(90)" d="M-11 -5L0 0L-11 5"/><rect class="d-label-bg" x="556" y="630.5" width="87.2" height="15"/><text class="d-mono" x="599.6" y="641.5" text-anchor="middle">/w/flow/sync</text></g></g><g class="d-ports"></g></svg>
